<?xml version="1.0" encoding="UTF-8"?>
<!DOCTYPE svg PUBLIC "-//W3C//DTD SVG 1.1//EN" "http://www.w3.org/Graphics/SVG/1.1/DTD/svg11.dtd">
<!-- Creator: CorelDRAW X6 -->
<svg xmlns="http://www.w3.org/2000/svg" xml:space="preserve" width="600px" height="501px" version="1.1" style="shape-rendering:geometricPrecision; text-rendering:geometricPrecision; image-rendering:optimizeQuality; fill-rule:evenodd; clip-rule:evenodd"
viewBox="0 0 148 123"
 xmlns:xlink="http://www.w3.org/1999/xlink">
 <defs>
  <style type="text/css">
   <![CDATA[
    .fil2 {fill:#008CC9}
    .fil1 {fill:url(#id0)}
    .fil0 {fill:url(#id1)}
   ]]>
  </style>
  <radialGradient id="id0" gradientUnits="objectBoundingBox" cx="63%" cy="27%" r="47%" fx="63%" fy="27%">
   <stop offset="0" style="stop-color:#44FFFF"/>
   <stop offset="1" style="stop-color:#0053FF"/>
  </radialGradient>
  <radialGradient id="id1" gradientUnits="objectBoundingBox" xlink:href="#id0" cx="85%" cy="30%" r="30%" fx="85%" fy="30%">
  </radialGradient>
 </defs>
 <g id="Layer_x0020_1">
  <metadata id="CorelCorpID_0Corel-Layer"/>
  <g id="_197029936">
   <path class="fil0" d="M59 22c-18,10 -27,29 -27,48l0 0c-11,11 -21,22 -30,33 30,-33 69,-63 98,-76l0 0 -10 -2c-17,10 -35,23 -51,38l0 0c2,-16 10,-31 25,-39l0 0c24,-14 55,-6 69,18l0 0c0,0 0,0 0,0l0 0c-10,-17 -28,-27 -47,-27l0 0c-9,0 -18,2 -27,7zm-28 68c1,-1 3,-2 4,-3l0 0c1,3 2,6 4,9l0 0c15,26 48,35 74,20l0 0c11,-6 23,-20 25,-33l0 0c1,-7 0,-15 -5,-19l0 0c-21,-15 -57,9 -66,32l0 0 28 3c4,-4 8,-9 14,-11l0 0c10,-5 24,-6 21,9l0 0c-3,7 -9,13 -15,16l0 0c-24,14 -56,6 -70,-19l0 0c-2,-3 -3,-7 -4,-10l0 0c20,-13 42,-26 63,-33l0 0 4 -8c-27,10 -54,29 -77,48l0 0z"/>
   <path class="fil1" d="M34 74c-22,18 -37,36 -33,44l0 0c2,4 17,6 46,-8l0 0c-5,2 -31,8 -35,2l0 0c-3,-4 9,-19 28,-33l0 0c25,-19 51,-35 70,-42l0 0 4 -7 -8 -2c-26,11 -61,36 -72,45l0 0z"/>
   <path class="fil2" d="M134 0l12 0c1,0 2,1 2,2l0 12c0,1 -1,2 -2,2l-12 0c-1,0 -2,-1 -2,-2l0 -12c0,-1 1,-2 2,-2z"/>
   <path class="fil2" d="M133 22l6 0c0,0 1,0 1,1l0 6c0,0 0,1 -1,1l-6 0c0,0 -1,0 -1,-1l0 -6c0,0 0,-1 1,-1z"/>
   <path class="fil2" d="M119 9l9 0c1,0 1,1 1,1l0 9c0,1 -1,1 -1,1l-9 0c-1,0 -1,-1 -1,-1l0 -9c0,-1 1,-1 1,-1z"/>
  </g>
 </g>
</svg>
